<svg xmlns="http://www.w3.org/2000/svg" width="1920" height="1440" viewBox="0 0 1920 1440"><rect width="1920" height="1440" fill="#fff"/><path d="M0 0h52v1440H0zM1500 0h420v360z" fill="#b50000"/><rect y="1230" width="1920" height="210" fill="#191919"/><g font-family="Arial,sans-serif"><path d="M80 65h92v116l-46 32-46-32z" fill="#b50000" stroke="#222" stroke-width="7"/><text x="103" y="155" font-size="72" font-weight="700" fill="#fff">K</text><text x="205" y="145" font-size="104" font-weight="700" fill="#111">KVODOS</text><text x="210" y="205" font-size="35" fill="#555">ЮРИДИЧЕСКАЯ ЗАЩИТА</text><text x="110" y="470" font-size="128" font-weight="700" fill="#111">ВОЗВРАТИЛИ</text><text x="110" y="620" font-size="128" font-weight="700" fill="#b50000">ЗАЯВЛЕНИЕ?</text><rect x="110" y="685" width="390" height="95" rx="18" fill="#b50000"/><text x="165" y="750" font-size="55" font-weight="700" fill="#fff">г. Краснодар</text><g font-size="42" fill="#222"><text x="125" y="870">✓ Анализ причины</text><text x="125" y="945">✓ Исправление ошибок</text><text x="125" y="1020">✓ Новый комплект</text><text x="125" y="1095">✓ Повторная подача</text></g><rect x="1110" y="340" width="570" height="660" rx="32" fill="#f7f7f7" stroke="#bbb" stroke-width="8"/><text x="1240" y="475" font-size="56" font-weight="700" fill="#333">ВОЗВРАТ</text><text x="1190" y="550" font-size="56" font-weight="700" fill="#b50000">ЗАЯВЛЕНИЯ</text><path d="M1220 665h350M1220 750h350M1220 835h350" stroke="#aaa" stroke-width="8"/><circle cx="1395" cy="910" r="58" fill="#b50000"/><path d="M1360 875l70 70M1430 875l-70 70" stroke="#fff" stroke-width="18" stroke-linecap="round"/><text x="120" y="1360" font-size="43" font-weight="700" fill="#fff">РАЗБЕРЁМ ПРИЧИНУ • ИСПРАВИМ НЕДОЧЁТЫ • ПОДГОТОВИМ ПОВТОРНУЮ ПОДАЧУ</text></g></svg>